<mxfile host="app.diagrams.net" agent="Mozilla/5.0 (Windows NT 10.0; Win64; x64) AppleWebKit/537.36 (KHTML, like Gecko) Chrome/129.0.0.0 Safari/537.36 Edg/129.0.0.0" version="24.7.17">
  <diagram name="第 1 页" id="E_CjI1Xyw19A5WqRQi4g">
    <mxGraphModel dx="1050" dy="569" grid="1" gridSize="10" guides="1" tooltips="1" connect="1" arrows="1" fold="1" page="1" pageScale="1" pageWidth="827" pageHeight="1169" math="0" shadow="0">
      <root>
        <mxCell id="0" />
        <mxCell id="1" parent="0" />
        <mxCell id="Uom50MxW0tR5suyeDsA2-6" style="edgeStyle=orthogonalEdgeStyle;rounded=0;orthogonalLoop=1;jettySize=auto;html=1;entryX=0.5;entryY=0;entryDx=0;entryDy=0;" edge="1" parent="1" source="Uom50MxW0tR5suyeDsA2-2" target="Uom50MxW0tR5suyeDsA2-5">
          <mxGeometry relative="1" as="geometry" />
        </mxCell>
        <mxCell id="Uom50MxW0tR5suyeDsA2-2" value="test_unit" style="rounded=1;whiteSpace=wrap;html=1;" vertex="1" parent="1">
          <mxGeometry x="110" y="190" width="120" height="60" as="geometry" />
        </mxCell>
        <mxCell id="Uom50MxW0tR5suyeDsA2-4" style="edgeStyle=orthogonalEdgeStyle;rounded=0;orthogonalLoop=1;jettySize=auto;html=1;entryX=0.5;entryY=0;entryDx=0;entryDy=0;" edge="1" parent="1" source="Uom50MxW0tR5suyeDsA2-3" target="Uom50MxW0tR5suyeDsA2-2">
          <mxGeometry relative="1" as="geometry" />
        </mxCell>
        <mxCell id="Uom50MxW0tR5suyeDsA2-3" value="input_data" style="ellipse;whiteSpace=wrap;html=1;" vertex="1" parent="1">
          <mxGeometry x="110" y="60" width="120" height="70" as="geometry" />
        </mxCell>
        <mxCell id="Uom50MxW0tR5suyeDsA2-8" style="edgeStyle=orthogonalEdgeStyle;rounded=0;orthogonalLoop=1;jettySize=auto;html=1;" edge="1" parent="1" source="Uom50MxW0tR5suyeDsA2-5" target="Uom50MxW0tR5suyeDsA2-7">
          <mxGeometry relative="1" as="geometry" />
        </mxCell>
        <mxCell id="Uom50MxW0tR5suyeDsA2-5" value="conversion" style="shape=hexagon;perimeter=hexagonPerimeter2;whiteSpace=wrap;html=1;fixedSize=1;" vertex="1" parent="1">
          <mxGeometry x="110" y="310" width="120" height="80" as="geometry" />
        </mxCell>
        <mxCell id="Uom50MxW0tR5suyeDsA2-10" style="edgeStyle=orthogonalEdgeStyle;rounded=0;orthogonalLoop=1;jettySize=auto;html=1;entryX=0;entryY=0.5;entryDx=0;entryDy=0;" edge="1" parent="1" source="Uom50MxW0tR5suyeDsA2-7" target="Uom50MxW0tR5suyeDsA2-9">
          <mxGeometry relative="1" as="geometry" />
        </mxCell>
        <mxCell id="Uom50MxW0tR5suyeDsA2-7" value="checker" style="rounded=1;whiteSpace=wrap;html=1;" vertex="1" parent="1">
          <mxGeometry x="320" y="320" width="120" height="60" as="geometry" />
        </mxCell>
        <mxCell id="Uom50MxW0tR5suyeDsA2-9" value="initial templates" style="ellipse;whiteSpace=wrap;html=1;" vertex="1" parent="1">
          <mxGeometry x="500" y="320" width="120" height="60" as="geometry" />
        </mxCell>
      </root>
    </mxGraphModel>
  </diagram>
</mxfile>
